<?xml version="1.0" encoding="iso-8859-1"?>
<!DOCTYPE svg PUBLIC "-//W3C//DTD SVG 1.1//EN" "http://www.w3.org/Graphics/SVG/1.1/DTD/svg11.dtd">
<svg id="salesforceIcon" xmlns="http://www.w3.org/2000/svg" viewBox="0 0 200 140">
  <defs>
    <style>
      .salesforce-cls-1 {
        fill: #00a1e0;
      }

      .salesforce-cls-2 {
        fill: #fff;
      }
    </style>
  </defs>
  <title>salesforce-icon</title>
  <g id="layer1">
    <g id="g3003">
      <path id="path3005" class="salesforce-cls-1" d="M83.23,15.27a35.08,35.08,0,0,1,56.21,7.4A42.7,42.7,0,0,1,156.88,19a43.5,43.5,0,0,1,0,87,42.52,42.52,0,0,1-8.49-.85,31.53,31.53,0,0,1-41.3,13,36,36,0,0,1-66.85-1.63,32.92,32.92,0,0,1-6.86.71A33.8,33.8,0,0,1,16.69,54.22,38.84,38.84,0,0,1,83.23,15.27"/>
    </g>
    <g id="g3007">
      <path id="path3009" class="salesforce-cls-2" d="M29,72.6c-.13.33,0,.4.08.45a10.6,10.6,0,0,0,1.15.69,12.08,12.08,0,0,0,6,1.4c4.1,0,6.65-2.18,6.65-5.69v-.07c0-3.25-2.88-4.43-5.58-5.28L36.9,64c-2-.66-3.79-1.23-3.79-2.57v-.07c0-1.14,1-2,2.62-2a11.75,11.75,0,0,1,5.21,1.34s.4.25.54-.13c.08-.21.77-2.05.84-2.25a.38.38,0,0,0-.2-.46,11.7,11.7,0,0,0-5.88-1.58h-.41c-3.75,0-6.37,2.27-6.37,5.52v.06c0,3.43,2.89,4.54,5.6,5.32l.43.13c2,.61,3.68,1.13,3.68,2.52v.07c0,1.27-1.11,2.22-2.89,2.22A9.74,9.74,0,0,1,31,70.59c-.28-.16-.45-.29-.67-.42a.33.33,0,0,0-.54.19Z"/>
    </g>
    <g id="g3011">
      <path id="path3013" class="salesforce-cls-2" d="M89,72.6c-.13.33,0,.4.08.45a10.6,10.6,0,0,0,1.15.69,12.08,12.08,0,0,0,6,1.4c4.1,0,6.65-2.18,6.65-5.69v-.07c0-3.25-2.88-4.43-5.58-5.28L97,64c-2-.66-3.79-1.23-3.79-2.57v-.07c0-1.14,1-2,2.62-2A11.79,11.79,0,0,1,101,60.69s.4.25.54-.13c.08-.21.77-2.05.84-2.25a.38.38,0,0,0-.2-.46,11.7,11.7,0,0,0-5.88-1.58h-.41c-3.75,0-6.37,2.27-6.37,5.52v.06c0,3.43,2.89,4.54,5.6,5.32l.43.13c2,.61,3.68,1.13,3.68,2.52v.07c0,1.27-1.11,2.22-2.89,2.22a9.74,9.74,0,0,1-5.29-1.53c-.28-.16-.46-.28-.67-.42a.35.35,0,0,0-.54.19Z"/>
    </g>
    <g id="g3015">
      <path id="path3017" class="salesforce-cls-2" d="M130,65.72a8.41,8.41,0,0,1-1.1,4.65A3.66,3.66,0,0,1,125.6,72a3.63,3.63,0,0,1-3.32-1.63,8.5,8.5,0,0,1-1.09-4.65,8.44,8.44,0,0,1,1.09-4.64,3.65,3.65,0,0,1,3.32-1.61,3.69,3.69,0,0,1,3.33,1.61,8.35,8.35,0,0,1,1.1,4.64M133.45,62a8.3,8.3,0,0,0-1.55-3,7.73,7.73,0,0,0-2.63-2,9.62,9.62,0,0,0-7.35,0,7.73,7.73,0,0,0-2.63,2,8.48,8.48,0,0,0-1.56,3,13.79,13.79,0,0,0,0,7.36,8.27,8.27,0,0,0,1.56,3,7.46,7.46,0,0,0,2.63,2,9.74,9.74,0,0,0,7.35,0,7.46,7.46,0,0,0,2.63-2,8.17,8.17,0,0,0,1.55-3,13.53,13.53,0,0,0,0-7.36"/>
    </g>
    <g id="g3019">
      <path id="path3021" class="salesforce-cls-2" d="M161.58,71.47a.33.33,0,0,0-.44-.21,8.12,8.12,0,0,1-1.59.46,12.34,12.34,0,0,1-1.88.13,5.23,5.23,0,0,1-3.92-1.46,6.61,6.61,0,0,1-1.47-4.69,7.24,7.24,0,0,1,1.32-4.51,4.47,4.47,0,0,1,3.8-1.67A11.2,11.2,0,0,1,161,60s.27.12.4-.24c.3-.83.52-1.42.84-2.34a.3.3,0,0,0-.21-.4,13.57,13.57,0,0,0-2.28-.58,17.75,17.75,0,0,0-2.57-.17,9.33,9.33,0,0,0-3.82.74,8,8,0,0,0-2.76,2A8.51,8.51,0,0,0,149,62a11.82,11.82,0,0,0-.56,3.68,9.81,9.81,0,0,0,2.28,6.82c1.51,1.69,3.79,2.55,6.76,2.55a14,14,0,0,0,4.85-.87.32.32,0,0,0,.14-.41Z"/>
    </g>
    <g id="g3023">
      <path id="path3025" class="salesforce-cls-2" d="M167.57,63.82a6.71,6.71,0,0,1,.93-2.74,3.71,3.71,0,0,1,3.32-1.68,3.62,3.62,0,0,1,3.25,1.68,5.81,5.81,0,0,1,.76,2.74Zm11.53-2.43a7.08,7.08,0,0,0-1.49-2.71,6.69,6.69,0,0,0-2.2-1.68,8.54,8.54,0,0,0-3.32-.67,9.09,9.09,0,0,0-3.83.74,7.63,7.63,0,0,0-2.66,2,8.16,8.16,0,0,0-1.57,3,13,13,0,0,0-.51,3.7,12.39,12.39,0,0,0,.52,3.7,7.84,7.84,0,0,0,1.68,3,7.54,7.54,0,0,0,2.92,1.93,11.72,11.72,0,0,0,4.21.68,12.08,12.08,0,0,0,5.83-1.16c.13-.07.25-.2.1-.56L178,71.24a.33.33,0,0,0-.43-.2,11.23,11.23,0,0,1-4.76.86,4.74,4.74,0,0,1-5.32-5.22h11.6a.34.34,0,0,0,.33-.3,12.52,12.52,0,0,0-.34-5"/>
    </g>
    <g id="g3027">
      <path id="path3029" class="salesforce-cls-2" d="M74.73,63.82a6.71,6.71,0,0,1,.93-2.74A3.71,3.71,0,0,1,79,59.4a3.62,3.62,0,0,1,3.25,1.68A5.81,5.81,0,0,1,83,63.82Zm11.52-2.43a7.08,7.08,0,0,0-1.48-2.71A6.69,6.69,0,0,0,82.57,57a8.54,8.54,0,0,0-3.32-.67,9,9,0,0,0-3.82.74,7.58,7.58,0,0,0-2.67,2,8.16,8.16,0,0,0-1.57,3,13,13,0,0,0-.51,3.7,12.39,12.39,0,0,0,.52,3.7,7.84,7.84,0,0,0,1.68,3A7.54,7.54,0,0,0,75.8,74.4a11.72,11.72,0,0,0,4.21.68,12.08,12.08,0,0,0,5.83-1.16c.13-.07.25-.2.1-.56l-.75-2.12a.34.34,0,0,0-.44-.2A11.23,11.23,0,0,1,80,71.9a4.74,4.74,0,0,1-5.32-5.22h11.6a.34.34,0,0,0,.33-.3,12.41,12.41,0,0,0-.35-5"/>
    </g>
    <g id="g3031">
      <path id="path3033" class="salesforce-cls-2" d="M49.67,71.41a2.36,2.36,0,0,1-.67-.69,2.79,2.79,0,0,1-.34-1.51,2.52,2.52,0,0,1,1-2.24,5.17,5.17,0,0,1,3.36-.84,23.16,23.16,0,0,1,3.15.27v5.27h0a23.12,23.12,0,0,1-3.13.42,5.28,5.28,0,0,1-3.4-.68m4.61-8.15c-.47,0-1.08,0-1.81,0a10.66,10.66,0,0,0-2.85.37A7.37,7.37,0,0,0,47.2,64.7a5.51,5.51,0,0,0-1.68,1.91,5.57,5.57,0,0,0-.62,2.67,6,6,0,0,0,.53,2.65,4.74,4.74,0,0,0,1.51,1.81,6.19,6.19,0,0,0,2.36,1,13.72,13.72,0,0,0,3.07.32,20.56,20.56,0,0,0,3.52-.3c1.14-.19,2.53-.47,2.92-.56s.81-.21.81-.21a.37.37,0,0,0,.27-.38V63c0-2.32-.62-4.05-1.84-5.12a7.92,7.92,0,0,0-5.32-1.6,18.93,18.93,0,0,0-3.11.29A11.34,11.34,0,0,0,46,57.9a.37.37,0,0,0-.1.46l.82,2.21a.3.3,0,0,0,.38.19l.19-.1a11.76,11.76,0,0,1,5-1.17,4.66,4.66,0,0,1,2.87.75c.63.48.95,1.21.95,2.76v.49c-1-.15-1.91-.23-1.91-.23"/>
    </g>
    <g id="g3035">
      <path id="path3037" class="salesforce-cls-2" d="M147.78,57.29a.32.32,0,0,0-.17-.42,10.87,10.87,0,0,0-2-.33,5.78,5.78,0,0,0-3,.48,5.32,5.32,0,0,0-2,1.44V57.05a.34.34,0,0,0-.34-.35h-3a.34.34,0,0,0-.33.35v17.3a.35.35,0,0,0,.35.35h3a.35.35,0,0,0,.35-.35V65.71a10.41,10.41,0,0,1,.38-3,4.29,4.29,0,0,1,1-1.7,3.48,3.48,0,0,1,1.43-.86,5.4,5.4,0,0,1,1.55-.22,6.85,6.85,0,0,1,1.28.15c.22,0,.35-.11.42-.31.2-.53.76-2.12.87-2.43"/>
    </g>
    <g id="g3039">
      <path id="path3041" class="salesforce-cls-2" d="M119.19,49.27a10.09,10.09,0,0,0-1.14-.27,9.16,9.16,0,0,0-1.58-.12,6.65,6.65,0,0,0-4.91,1.76,9.64,9.64,0,0,0-2.33,5.26l-.14.78h-2.63a.4.4,0,0,0-.39.34l-.43,2.41c0,.23.07.38.38.38h2.56L106,74.32a19,19,0,0,1-.69,2.85,6.17,6.17,0,0,1-.81,1.65,2.16,2.16,0,0,1-1.06.82,4.44,4.44,0,0,1-1.37.2,4.92,4.92,0,0,1-.93-.11,2.38,2.38,0,0,1-.62-.2.32.32,0,0,0-.42.19c-.1.25-.78,2.12-.86,2.35a.35.35,0,0,0,.18.47,8.77,8.77,0,0,0,1.06.31,7,7,0,0,0,1.69.16,8.53,8.53,0,0,0,2.85-.44,5.39,5.39,0,0,0,2.14-1.5,7.56,7.56,0,0,0,1.51-2.59,23.07,23.07,0,0,0,1-3.89l2.61-14.78h3.82a.38.38,0,0,0,.38-.34l.44-2.41c0-.23-.07-.38-.38-.38h-3.71a16.62,16.62,0,0,1,.61-2.61,3.53,3.53,0,0,1,.82-1.24,2.47,2.47,0,0,1,1-.6,4,4,0,0,1,1.24-.18,4.33,4.33,0,0,1,1,.1,5.65,5.65,0,0,1,.6.14c.38.12.43,0,.5-.18l.89-2.43a.33.33,0,0,0-.22-.41"/>
    </g>
    <g id="g3043">
      <path id="path3045" class="salesforce-cls-2" d="M67.41,74.35a.34.34,0,0,1-.34.35H64a.34.34,0,0,1-.33-.35V49.6a.34.34,0,0,1,.33-.35h3.07a.34.34,0,0,1,.34.35Z"/>
    </g>
  </g>
</svg>
