<?xml version="1.0" encoding="iso-8859-1"?>
<svg xmlns="http://www.w3.org/2000/svg" viewBox="0 0 480 480">
  <defs>
    <style>
      .salesforce-cls-1 { fill: #013c4e; }
      .salesforce-cls-2 { fill: #00a1e0; }
    </style>
  </defs>
  <title>salesforce-icon</title>
  <circle class="salesforce-cls-1" cx="240" cy="240" r="240"/>
  <g id="g3003">
    <path id="path3005" class="salesforce-cls-2" d="M216.52,163.38A49.05,49.05,0,0,1,252,148.14a49.57,49.57,0,0,1,43.19,25.61,59.62,59.62,0,0,1,24.42-5.19c33.33,0,60.36,27.26,60.36,60.89s-27,60.89-60.36,60.89a60.46,60.46,0,0,1-11.89-1.18,44.14,44.14,0,0,1-57.82,18.16A50.35,50.35,0,0,1,156.34,305a46.08,46.08,0,0,1-9.61,1C120.92,306,100,284.9,100,258.82a47.28,47.28,0,0,1,23.37-40.9,54.38,54.38,0,0,1,93.15-54.54"/>
  </g>
</svg>
